<svg version="1" xmlns="http://www.w3.org/2000/svg" width="104" height="104" viewBox="0 0 78.000000 78.000000"><path d="M27.3 3.9c-9.4 3.5-16.6 10.3-21.2 20-2.2 4.8-2.6 6.9-2.6 15.1 0 8.7.3 10.1 3.2 16.1 3.9 7.9 10.2 14 18.1 17.7 8.1 3.8 20.2 3.8 28.2.1 29-13.5 29.1-54.3.2-67.7-7.6-3.5-18.4-4.1-25.9-1.3zm27.6 18.6c5.5 8.1 4.8 9.7-.8 1.9-3.7-5.1-4.1-5.5-4.1-3 0 1.5 1.8 5.1 4.5 8.8 2.5 3.4 4.5 6.6 4.5 7 0 1.9-1.7.4-5-4.4-3-4.4-3.5-4.9-3.8-3-.2 1.4 1.3 4.6 4.2 8.7 2.5 3.5 4.6 6.6 4.6 6.9 0 1.7-1.9 0-5-4.5l-3.5-5.2-.5 11.9-.6 11.9-.2-12-.2-12-3.5 5c-3.4 4.7-5.5 6.6-5.5 5 0-.4 2.1-3.6 4.6-7.1 2.8-4 4.4-7.3 4.2-8.6-.2-1.8-.9-1.4-3.8 3-3.3 4.8-5 6.3-5 4.4 0-.4 2.1-3.6 4.6-7.1 2.8-3.8 4.4-7.1 4.2-8.4-.3-1.8-.9-1.3-4.2 3.3-2.2 3-4.1 5-4.3 4.3-.5-1.4 7.8-13.2 9.2-13.2.6-.1 3 2.9 5.4 6.4zM31.4 33.4c4.6 5.6 4.7 8.4.1 3.1-4.7-5.4-4.6-2.2.1 3.9 2.1 2.5 3.4 4.9 3 5.3-.3.4-1.3-.2-2-1.3-4.2-5.8-4.5-6.1-4.6-4 0 1 1.6 3.8 3.5 6.2 4.5 5.5 4.5 8.2 0 2.9l-3.5-4v8.2c0 4.9-.4 8.3-1 8.3s-1-3.6-1-8.7v-8.7L22.8 49c-1.8 2.3-3.4 3.8-3.6 3.1-.2-.7 1.2-3.3 3.2-5.8 4.6-6 4.7-8.9.1-3.7-4.5 5.1-4.5 3 0-2.9s4.5-8.4 0-3.2c-1.9 2.2-3.5 3.4-3.5 2.7 0-1.8 6.2-10.1 7.6-10.2.7 0 2.8 2 4.8 4.4z"/></svg>